Coordinates
version=1
nRows=9
nColumns=24
inDegrees=yes

Units are S.I. units (second, meters, Newtons, ...)
Angles are in degrees.

endheader
time	pelvis_tilt	pelvis_list	pelvis_rotation	pelvis_tx	pelvis_ty	pelvis_tz	hip_flexion_r	hip_adduction_r	hip_rotation_r	knee_angle_r	ankle_angle_r	subtalar_angle_r	mtp_angle_r	hip_flexion_l	hip_adduction_l	hip_rotation_l	knee_angle_l	ankle_angle_l	subtalar_angle_l	mtp_angle_l	lumbar_extension	lumbar_bending	lumbar_rotation
      3.48500000	     -4.78379435	      9.55817188	     -0.96925815	     -0.56568033	     -0.01577779	     -0.17091393	     31.72059801	     -7.86148878	      1.19391888	    -66.79421147	    -11.45185278	      3.90510795	     23.42016564	      8.91877782	     18.44055738	     -0.76868577	    -11.44308323	      6.60635020	      4.39826356	    -11.33546697	      4.76452978	    -11.03703716	     -1.62455816
      3.49000000	     -4.72345246	      9.32157168	     -0.87189644	     -0.56021796	     -0.01535352	     -0.17110440	     32.25810853	     -7.54090665	      1.04008451	    -65.82567045	    -10.89632674	      4.03942903	     23.53149541	      8.22812452	     18.23811113	     -0.47494674	    -11.18885752	      6.82602518	      4.44529091	    -11.21830514	      4.60602543	    -10.81456597	     -1.84969709
      3.49500000	     -4.66809952	      9.08204526	     -0.75945202	     -0.55478102	     -0.01495430	     -0.17130227	     32.76277140	     -7.22444714	      0.88440758	    -64.77793866	    -10.34790809	      4.19120806	     23.60411719	      7.56060446	     18.02737238	     -0.19184367	    -10.96143997	      7.02230538	      4.51815465	    -11.08825190	      4.44497729	    -10.59295618	     -2.08900596
      3.50000000	     -4.58935046	      8.85500680	     -0.62873442	     -0.54932319	     -0.01458792	     -0.17151715	     33.20697593	     -6.94777899	      0.70109831	    -63.67170901	     -9.79020364	      4.36736355	     23.62573897	      6.85852300	     17.82844791	      0.12529598	    -10.72002875	      7.20854536	      4.58663140	    -10.91145340	      4.26100652	    -10.38582410	     -2.33255345
      3.50500000	     -4.64250306	      8.64605242	     -0.56678391	     -0.54385168	     -0.01443051	     -0.17161007	     33.80650255	     -6.62282859	      0.62237574	    -62.52440944	     -9.34929664	      4.45520545	     23.61559907	      6.33472149	     17.63063934	      0.32889486	    -10.51088518	      7.43736987	      4.64004895	    -10.81461069	      4.24487389	    -10.18711570	     -2.44585412
      3.51000000	     -4.52696198	      8.37879674	     -0.36502714	     -0.53842397	     -0.01404848	     -0.17190946	     34.10550742	     -6.35704609	      0.38530161	    -61.25333329	     -8.77392166	      4.75309911	     23.55173254	      5.62435325	     17.39605842	      0.66363599	    -10.33602401	      7.59659403	      4.67276223	    -10.62798028	      3.99429483	     -9.94824152	     -2.83703764
      3.51500000	     -4.48425996	      8.14307881	     -0.23516487	     -0.53295652	     -0.01382705	     -0.17208349	     34.49238668	     -6.07054450	      0.23551211	    -59.95484862	     -8.26188093	      4.98066480	     23.39741154	      4.99089700	     17.17995166	      0.98131468	    -10.12699199	      7.73700275	      4.61583562	    -10.43637627	      3.85229813	     -9.73102827	     -3.07731128
      3.52000000	     -4.53806392	      7.92442476	     -0.13695328	     -0.52751377	     -0.01375501	     -0.17217278	     34.97692694	     -5.75815264	      0.17290314	    -58.60242916	     -7.83922799	      5.15986429	     23.28955027	      4.49894811	     16.96974781	      1.23140360	     -9.96596198	      7.91055288	      4.59407106	    -10.31459168	      3.82251499	     -9.52540251	     -3.20548669
      3.52500000	     -4.45275136	      7.69594127	      0.04109776	     -0.52205233	     -0.01356494	     -0.17239769	     35.23683875	     -5.53188213	     -0.02130974	    -57.18140552	     -7.28342657	      5.45786986	     23.08429813	      3.82900824	     16.76698907	      1.58333746	     -9.77673595	      8.02489519	      4.46879059	    -10.12352539	      3.62568841	     -9.32881108	     -3.55577816
